<svg xmlns="http://www.w3.org/2000/svg" width="24" height="24" viewBox="0 0 24 24" fill="none" stroke="currentColor" stroke-width="2" stroke-linecap="round" stroke-linejoin="round" class="lucide lucide-chef-hat"><path d="M18 10.37V4.5a.5.5 0 0 0-.5-.5h-11a.5.5 0 0 0-.5.5v5.87"/><path d="M6 14.12V18a2 2 0 0 0 2 2h8a2 2 0 0 0 2-2v-3.88"/><path d="M6 14.12A2 2 0 0 1 4 12.12V10a2 2 0 0 1 2-2h12a2 2 0 0 1 2 2v2.12a2 2 0 0 1-2 2.02v0a2 2 0 0 1-2-2.02v-1.1"/><path d="M6 12.12V10h12v2.12"/><path d="M12 2v2.5"/></svg>